<?xml version="1.0" encoding="UTF-8" standalone="no"?><!DOCTYPE svg PUBLIC "-//W3C//DTD SVG 1.1//EN" "http://www.w3.org/Graphics/SVG/1.1/DTD/svg11.dtd"><svg width="100%" height="100%" viewBox="0 0 3062 2641" version="1.1" xmlns="http://www.w3.org/2000/svg" xmlns:xlink="http://www.w3.org/1999/xlink" xml:space="preserve" xmlns:serif="http://www.serif.com/" style="fill-rule:evenodd;clip-rule:evenodd;stroke-linejoin:round;stroke-miterlimit:2;"><path d="M1136.5,2460.28c3.841,-5.339 6.106,-12.279 5.807,-21.016c-0.13,-4.153 -0.104,-8.268 -0.026,-12.383c24.336,-38.072 45.885,-78.463 73.711,-113.776c21.133,-26.809 54.297,-38.255 80.364,-58.268c5.209,-3.034 10.027,-6.315 14.61,-9.818c33.385,-16.744 62.917,-31.848 74.44,-61.575c-0.287,-24.349 -12.917,-47.292 -29.193,-65.117c-2.317,-2.539 -4.752,-4.987 -7.252,-7.357c-19.076,-20.339 -46.628,-34.635 -81.836,-37.708c-10.352,-0.899 -18.607,1.875 -24.766,6.77c-17.891,4.961 -32.93,18.139 -44.57,34.375c-1.641,2.149 -3.151,4.402 -4.571,6.771c-0.82,1.302 -1.562,2.618 -2.343,3.946c-7.513,8.658 -14.453,17.617 -20.677,27.031c-7.618,9.596 -14.87,20.312 -21.719,31.836c-15.143,20.416 -28.893,42.513 -41.953,64.232c-0.521,0.781 -1.12,1.549 -1.628,2.356c-5.013,7.813 -9.7,15.795 -14.114,23.907c-2.592,4.323 -5.196,8.632 -7.761,12.825c-8.515,13.893 -16.81,27.917 -24.661,42.188c-4.896,8.88 -10.026,27.474 -17.435,33.02c-0.404,0.313 -1.003,0.521 -1.511,0.782c-29.414,-8.894 -60.208,-10.925 -93.033,-6.823c-5.261,0.664 -9.701,2.187 -13.477,4.271c-5.859,0.768 -11.758,1.653 -17.708,2.786c-40.873,7.813 -37.331,77.136 6.015,73.763c15,-1.159 30.834,-1.94 46.511,-1.081c-22.904,13.959 -42.227,34.011 -54.935,59.623c-18.529,37.409 21.12,74.544 56.393,47.851c15.547,-11.744 39.414,-41.914 62.083,-54.44c9.141,-2.135 18.854,-2.578 28.985,-0.989c4.778,11.393 6.172,23.776 3.086,35.885c-2.813,7.227 -6.185,14.024 -8.881,19.01c-22.656,42.058 34.636,80.079 63.034,40.274c13.008,-18.229 20.222,-38.88 22.214,-59.948c4.388,-21.758 4.336,-43.802 -3.203,-63.203" style="fill-rule:nonzero;"/><path d="M1375.66,1942.02c20.821,2.813 42.11,10.065 58.347,23.581c18.698,15.534 27.643,37.448 32.93,60.508c5.416,23.607 8.906,48.867 7.526,73.581c5.468,33.841 -16.524,74.14 -32.526,101.835c-24.219,41.889 -57.448,74.636 -103.152,92.54c-32.747,12.825 -56.914,-13.568 -58.437,-40.56c-0.156,0.013 -0.3,0.052 -0.456,0.065c-0.69,-0 -1.354,-0.013 -2.044,-0.026c-0.234,0.026 -0.443,0.091 -0.677,0.117c-8.386,0.703 -16.393,-0.638 -24.024,-4.063c-3.45,-2.122 -6.901,-4.244 -10.351,-6.367c-6.628,-5.416 -11.445,-12.122 -14.44,-20.117c-2.513,-6.029 -3.347,-12.214 -2.513,-18.529c-0.13,-3.281 0.455,-6.432 1.289,-9.531c-1.406,0.625 -2.669,1.471 -4.18,1.979c-6.497,2.696 -13.151,3.62 -19.961,2.774c-6.64,0.299 -12.995,-1.055 -19.049,-4.076l-11.042,-6.797c-7.083,-5.781 -12.227,-12.942 -15.443,-21.497l-0.534,-2.357c-17.278,2.057 -33.997,0.182 -47.942,-13.984c-16.289,-16.563 -15.065,-39.571 -3.542,-57.63c1.458,-3.399 3.138,-6.732 5.3,-9.857c0.052,-0.078 0.117,-0.169 0.169,-0.248c0.495,-4.218 1.771,-8.424 4.557,-12.291c4.87,-6.771 10.873,-12.722 16.979,-18.503c11.407,-15.677 24.037,-31.471 38.269,-44.805c2.096,-2.33 4.088,-4.713 6.224,-7.005c3.216,-3.476 6.692,-6.041 10.234,-8.229c12.578,-13.945 29.896,-24.935 45.872,-31.614c42.787,-17.865 96.732,-25.105 142.617,-18.894" style="fill:#2d1300;fill-rule:nonzero;"/><path d="M788.796,149.611c-9.362,-10.768 -21.198,-17.318 -34.05,-21.563c1.628,-18.073 -4.779,-37.317 -18.437,-49.83c-18.164,-16.628 -40.248,-17.956 -60.547,-10.899c-6.25,-11.562 -16.159,-21.224 -29.44,-26.693c-17.982,-7.395 -34.414,-6.145 -49.076,0.261c-8.086,-11.992 -20,-21.576 -33.854,-25.807c-20.195,-6.185 -39.362,-1.003 -55.091,10.13c-9.206,-14.883 -23.438,-25.352 -44.857,-25.209c-30.13,0.183 -47.018,19.167 -55.638,43.06c-16.419,-7.994 -35.586,-10.494 -54.661,-5.612c-7.435,1.901 -15.99,9.089 -17.136,17.149c-3.437,24.023 -2.539,46.028 9.961,67.409c8.19,14.01 23.568,13.138 32.839,4.713c0.638,0.209 1.184,0.547 1.862,0.716c29.817,7.162 58.789,4.31 88.893,1.446c27.851,-2.644 55.885,-3.985 83.828,-2.097c49.557,3.373 100.182,19.375 135.664,55.573c15.885,16.198 23.398,43.255 43.294,54.518c22.617,12.826 52.279,2.618 65.716,-18.632c13.894,-21.993 6.901,-50.039 -9.27,-68.633" style="fill:#f00;fill-rule:nonzero;stroke:#000;stroke-width:10.85px;"/><path d="M2980.84,1110.84c6.901,1.093 13.803,2.174 20.691,3.411c34.557,6.185 78.945,-32.226 52.161,-67.838c-40.573,-53.907 -103.672,-82.878 -166.419,-82.539c-0.703,-0.795 -1.498,-1.472 -2.227,-2.24c38.776,-57.786 55.456,-123.867 -13.294,-166.471c-59.492,-36.875 -115.247,1.341 -158.867,56.211c-12.448,9.44 -23.568,19.843 -33.49,31.08c3.086,-19.153 5.625,-38.268 7.214,-57.278c3.45,-41.524 -12.045,-81.276 -58.594,-87.292c-81.042,-10.456 -133.646,79.661 -154.037,160.013c-23.072,0.82 -45.156,5.195 -65.768,14.714c-124.635,-2.318 -250.794,25.651 -250.794,25.651c-0,-0 -371.029,117.174 -687.682,-0.404c-131.211,-48.724 -253.073,-137.734 -335.352,-292.096c-76.797,-144.05 -149.805,-253.204 -218.45,-335.378c-227.917,-272.813 -407.5,-248.073 -516.055,-215.495c-141.25,42.37 -268.386,395.495 -211.888,480.248c56.51,84.752 -34.037,350.52 276.719,844.895c16.81,26.745 793.06,1578.36 2213.54,364.584c211.042,-180.326 253.555,-345.599 220.078,-481.875c27.019,18.008 61.602,32.135 93.047,18.255c35.417,-15.651 46.211,-54.701 31.237,-88.724c-15.963,-36.328 -47.916,-65.286 -85.573,-86.198c19.623,-5.651 35.144,-16.628 43.802,-35.234" style="fill:#754c24;fill-rule:nonzero;stroke:#000;stroke-width:10.85px;"/><path d="M2019.4,2404.1c-4.271,-5.027 -10.508,-8.92 -19.115,-10.756c-4.101,-0.885 -8.125,-1.927 -12.148,-3.008c-31.198,-32.89 -65.391,-63.632 -93.021,-99.244c-21.003,-27.045 -23.971,-61.992 -37.083,-92.162c-1.667,-5.794 -3.672,-11.276 -5.977,-16.562c-8.086,-36.472 -15.521,-68.789 -41.758,-87.24c-23.906,-5.651 -49.492,1.003 -70.989,12.435c-3.073,1.641 -6.068,3.385 -9.011,5.247c-24.635,13.529 -45.481,36.758 -57.239,70.17c-3.451,9.817 -2.787,18.489 0.469,25.664c0.416,18.567 9.583,36.367 22.565,51.627c1.692,2.097 3.528,4.128 5.507,6.068c1.055,1.107 2.175,2.162 3.269,3.242c6.614,9.401 13.659,18.308 21.315,26.641c7.513,9.739 16.185,19.388 25.768,28.841c16.224,19.662 34.427,38.398 52.435,56.367c0.664,0.703 1.25,1.459 1.901,2.162c6.419,6.758 13.06,13.242 19.909,19.518c3.581,3.568 7.148,7.135 10.625,10.651c11.471,11.654 23.138,23.125 35.156,34.219c7.474,6.901 24.414,16.432 27.995,24.961c0.195,0.468 0.273,1.093 0.377,1.666c-16.002,26.354 -25.651,55.716 -29.778,88.568c-0.664,5.26 -0.274,9.935 0.833,14.102c-0.703,5.872 -1.302,11.809 -1.68,17.864c-2.513,41.55 66.224,55.026 73.698,12.162c2.579,-14.831 5.743,-30.391 10.495,-45.378c7.969,25.625 22.8,49.245 44.714,67.826c31.992,27.109 78.203,-2.292 60.846,-43.021c-7.643,-17.943 -31.25,-48.438 -37.878,-73.49c0.183,-9.388 2.175,-18.919 6.237,-28.346c12.344,-1.862 24.805,-0.196 35.912,5.755c6.354,4.492 12.174,9.427 16.393,13.242c35.534,32.253 86.966,-14.036 55.078,-51.289c-14.622,-17.07 -33.034,-29.114 -53.164,-36.185c-20.208,-9.557 -41.784,-14.883 -62.656,-12.317" style="fill-rule:nonzero;"/><path d="M1658.59,1974.68c-21.055,0.443 -43.112,5.287 -60.912,16.966c-20.469,13.425 -32.044,34.349 -40.091,56.836c-8.255,23.034 -14.792,47.93 -16.432,72.839c-9.532,33.255 7.435,76.107 20,105.677c19.01,44.713 48.086,81.302 91.367,104.44c31.016,16.589 58.268,-7.096 63.047,-33.958c0.156,0.039 0.299,0.091 0.456,0.13c0.677,0.065 1.354,0.13 2.031,0.195c0.221,0.052 0.442,0.143 0.664,0.196c8.242,1.666 16.38,1.237 24.388,-1.329c3.685,-1.718 7.383,-3.463 11.068,-5.195c7.252,-4.661 12.851,-10.833 16.809,-18.502c3.23,-5.73 4.805,-11.823 4.74,-18.269c0.534,-3.255 0.326,-6.484 -0.117,-9.687c1.315,0.794 2.474,1.784 3.919,2.461c6.133,3.437 12.63,5.13 19.505,5.065c6.576,1.055 13.06,0.416 19.44,-1.914l11.823,-5.547c7.748,-4.974 13.737,-11.563 17.969,-19.753l0.807,-2.317c16.954,4.036 33.816,4.062 49.388,-8.542c18.217,-14.714 19.792,-37.904 10.521,-57.305c-1.028,-3.567 -2.304,-7.083 -4.075,-10.469c-0.039,-0.091 -0.091,-0.182 -0.13,-0.273c0.026,-4.271 -0.743,-8.646 -3.034,-12.825c-4.024,-7.331 -9.284,-13.985 -14.662,-20.456c-9.427,-17.005 -20.091,-34.258 -32.63,-49.232c-1.784,-2.578 -3.49,-5.195 -5.326,-7.734c-2.786,-3.842 -5.924,-6.81 -9.192,-9.401c-10.808,-15.404 -26.693,-28.399 -41.771,-36.888c-40.391,-22.787 -93.177,-36.185 -139.57,-35.209" style="fill:#512b0c;fill-rule:nonzero;"/><path d="M281.816,744.374c-5.664,-16.25 -12.395,-32.24 -20.052,-47.643c-4.687,-9.44 -9.739,-19.219 -15.664,-28.295c-1.146,-2.708 -2.747,-5.091 -4.648,-7.148c0.013,-0.391 0.117,-0.755 0.117,-1.172c0,-12.461 -10.846,-24.193 -23.698,-23.698c-32.344,1.25 -56.575,25.234 -65.898,55.104c-4.649,14.922 -5.482,31.081 -5.378,46.615c0.104,13.789 0.977,28.32 8.021,40.586c8.633,15.013 25.443,23.594 42.682,19.987c5.677,-1.185 10.69,-3.854 15.235,-7.201c0.299,1.328 0.52,2.67 0.833,3.998c7.734,32.591 23.099,62.2 55.729,74.869c15.182,5.899 33.698,-9.283 32.695,-24.895c-2.226,-34.401 -8.619,-68.542 -19.974,-101.107" style="fill:#f00;fill-rule:nonzero;stroke:#000;stroke-width:7.89px;"/><path d="M2155.16,1118.57c-1.706,-2.604 -3.334,-5.26 -5.13,-7.812c7.929,4.778 15.859,9.531 23.724,14.375c-6.081,-2.5 -12.292,-4.662 -18.594,-6.563m216.797,107.513c-1.953,-11.653 -6.511,-22.461 -13.06,-31.562c1.002,-9.336 -2.292,-19.31 -11.992,-26.302c-53.724,-38.685 -111.68,-72.357 -168.529,-106.211c-57.07,-33.946 -114.831,-66.706 -173.281,-98.216c-112.474,-60.612 -228.269,-121.758 -353.177,-152.214c-111.901,-27.292 -232.396,-27.747 -339.597,17.982c-106.745,45.521 -190.833,138.411 -203.594,256.341c-7.421,68.607 6.862,141.159 29.818,205.729c13.867,38.984 31.875,75.456 53.646,109.779c8.294,18.242 18.346,35.638 30.026,51.901c-1.419,5.13 -0.807,10.989 3.151,17.083c86.615,133.307 233.75,217.474 386.81,251.016c87.057,19.088 177.083,23.737 265.911,18.646c61.576,-3.529 151.42,-8.073 183.191,-72.292c17.044,-34.44 7.669,-71.667 -15.847,-100.026c26.38,2.93 52.943,3.034 79.571,-2.018c48.684,-9.245 93.645,-41.172 116.276,-85.691c22.187,-43.632 19.583,-93.45 -11.576,-131.484c-0.417,-2.956 -0.846,-5.911 -1.406,-8.854c35.599,-3.75 74.219,-8.32 104.57,-28.711c28.997,-19.466 44.909,-49.948 39.089,-84.896" style="fill:#512b0c;fill-rule:nonzero;stroke:#000;stroke-width:9.67px;"/><path d="M1155.36,717.022c-41.433,0.3 -88.685,-12.565 -117.813,-43.737c-7.539,-16.549 -16.328,-32.265 -26.198,-46.627c-32.044,-46.615 -108.919,-0.938 -75.755,44.284c30.677,58.085 76.25,155.625 6.003,206.015c-57.8,41.472 -106.953,0.313 -135.573,-50.846c-7.565,-25 -17.07,-48.555 -27.669,-69.232c-25.026,-48.906 -98.386,-14.258 -86.237,36.367c5.898,24.571 15.768,49.479 28.789,72.943c15.95,55.338 20.937,121.823 -17.748,156.172c-60.703,53.893 -134.349,-49.74 -165.442,-97.018c-31.967,-48.607 -102.722,-6.563 -77.553,45.325c14.662,30.221 53.946,121.68 22.396,154.193c-57.057,58.789 -122.995,-84.284 -142.083,-113.516c-23.867,-36.497 -80.716,-4.036 -58.854,34.401c44.192,77.748 117.265,226.771 234.023,156.576c38.854,-23.36 55.391,-61.771 58.906,-104.271c51.472,36.927 111.081,52.37 171.342,11.068c48.086,-32.969 70.494,-83.711 76.302,-139.011c44.179,22.93 95.625,27.11 148.997,-1.302c73.594,-39.18 99.193,-112.161 94.323,-186.706c26.849,10.99 56.471,17.071 89.844,16.706c52.604,-0.56 52.734,-82.148 -0,-81.784" style="fill:#512b0c;fill-rule:nonzero;stroke:#000;stroke-width:12.63px;"/><path d="M216.419,463.306c-6.263,-14.401 -18.372,-26.328 -30.612,-35.612c-1.784,-1.367 -3.711,-2.539 -5.586,-3.789c-0.078,-0.078 -0.143,-0.169 -0.221,-0.234c-3.294,-3.06 -6.94,-5.703 -10.443,-8.542c-44.635,-44.531 -107.851,-90.039 -160.794,-55.716c-3.555,2.292 -6.406,5.221 -8.763,8.398c1.029,1.368 23.542,31.224 25.794,33.868c10.196,11.914 20.339,23.893 31.459,34.934c5.625,5.599 11.536,10.86 17.708,15.847c2.695,2.174 46.016,32.278 56.81,35.82c-5.677,5.274 -51.784,112.682 -53.854,123.333c-0.469,2.37 -0.834,4.766 -1.224,7.149c0.442,-2.5 -0.43,3.164 -0.495,3.828c-0.065,0.703 -0.039,1.406 -0.104,2.096c24.14,16.459 52.643,-0.937 77.018,-26.093c7.578,-5.717 14.74,-11.967 21.484,-18.269c7.917,-7.395 15.404,-15.273 22.292,-23.632c1.107,-1.355 2.175,-2.748 3.255,-4.128c15.417,-13.815 25.078,-33.854 24.701,-56.602c-0.196,-11.302 -3.242,-22.552 -8.425,-32.656" style="fill-rule:nonzero;"/></svg>