<?xml version="1.0" encoding="UTF-8" standalone="no"?><!DOCTYPE svg PUBLIC "-//W3C//DTD SVG 1.1//EN" "http://www.w3.org/Graphics/SVG/1.1/DTD/svg11.dtd"><svg width="100%" height="100%" viewBox="0 0 2282 2802" version="1.1" xmlns="http://www.w3.org/2000/svg" xmlns:xlink="http://www.w3.org/1999/xlink" xml:space="preserve" xmlns:serif="http://www.serif.com/" style="fill-rule:evenodd;clip-rule:evenodd;"><path d="M258.704,2506.54l-223.075,-152.629l92.25,226.429l-125.796,-68.767l135.859,169.404l-115.729,-51.996c-0,0 66.983,121.43 125.795,149.275c36.386,17.229 81.105,8.607 120.763,1.678c59.433,-10.385 109.5,-70.917 169.404,-63.738c44.342,5.315 68.138,61.946 110.7,75.475c30.908,9.827 66.133,10.713 97.279,1.677c24.424,-7.085 38.741,-37.243 63.738,-41.933c31.471,-5.902 62.891,28.011 93.925,20.127c29.975,-7.614 39.537,-59.287 70.446,-60.383c40.341,-1.426 58.512,60.871 97.279,72.121c22.073,6.405 47.354,3.317 68.766,-5.032c38.56,-15.035 56.992,-67.688 97.28,-77.154c18.36,-4.314 37.133,6.854 55.35,11.741c26.126,7.009 50.6,30.313 77.154,25.158c35.839,-6.956 49.396,-58.412 83.862,-70.445c19.538,-6.82 41.75,-2.3 62.059,1.677c63.895,12.514 117.845,72.933 182.82,68.766c30.95,-1.984 51.663,-38.128 82.188,-43.608c33.309,-5.98 67.725,5.541 100.637,13.418c44.367,10.618 84.063,52.246 129.15,45.288c30.39,-4.69 43.125,-57.53 73.8,-55.35c33.125,2.354 40.997,55.095 70.446,70.445c31.218,16.272 73.109,35.352 103.992,18.45c34.519,-18.892 27.384,-73.979 45.287,-109.02c20.895,-40.903 60.842,-72.884 72.121,-117.409c7.565,-29.852 -0.289,-61.821 -5.031,-92.25c-8.542,-54.8 -41.934,-161.016 -41.934,-161.016l-1.677,169.404c-0,-0 -49.771,-56.4 -63.738,-90.571c-14.36,-35.139 2.962,-81.029 -18.45,-112.375c-59.383,-86.933 -271.716,-161.017 -271.716,-161.017l-1615.2,394.16Z" style="fill-rule:nonzero;stroke:#000;stroke-width:4.17px;"/><path d="M267.883,626.542c-53.975,-26.621 177.359,-21.372 194.638,-80.679c19.582,-67.205 -125.1,-94.63 -105.788,-115.688c237.08,-258.467 849.459,-740.792 1620.42,-37.003l8.671,132.959l63.588,80.933l63.587,222.563l-2.89,543.416l-49.138,132.959l54.917,63.587l0,818" style="fill:none;fill-rule:nonzero;stroke:#000;stroke-width:54.58px;stroke-linecap:square;stroke-miterlimit:36;"/><path d="M233.546,2645.75l-40.254,-1308.25l132.504,-20.127l-117.408,-72.121l1.677,-415.962c-0,-0 32.249,-89.746 36.993,-94.492c4.744,-4.746 -5.93,-106.742 -5.93,-106.742l148.25,-13.046l-52.183,-164.854c714.625,-714.333 1354.75,-333.733 1624.83,-35.58l4.744,117.413l71.159,71.158l66.416,219.408l-5.93,545.542l-49.812,135.204l56.929,55.742l-7.116,980.833l-124.529,124.529l-1740.34,-18.655Z" style="fill:#e5e5e5;fill-rule:nonzero;stroke:#000;stroke-width:25px;stroke-linejoin:bevel;"/><text x="743.467px" y="1644.42px" style="font-family:'MS-UIGothic', 'MS UI Gothic', sans-serif;font-size:614.006px;">✟</text><g transform="matrix(4.16667,0,0,4.16667,57.6039,117.84)"><text x="42.736px" y="443.317px" style="font-family:'CrudFont', 'Crud';font-weight:5;font-size:64px;">das Huhn war</text><g transform="matrix(64,0,0,64,392.656,507.317)"></g><text x="112.976px" y="507.317px" style="font-family:'CrudFont', 'Crud';font-weight:5;font-size:64px;">schneller</text></g><path d="M1422.25,96.038l354.358,329.033l43.609,120.762l114.054,265.009l10.063,607.166l-46.454,101.525l53.671,90.571l3.354,1053.33" style="fill:none;fill-rule:nonzero;stroke:#000;stroke-width:54.58px;"/><path d="M1349.46,63.783c0,0 -55.375,106.446 -119.608,136.538c-97.779,20.028 -216.958,5.7 -332.096,10.064c-42.696,1.618 -103.137,-5.532 -142.567,16.772c-42.658,24.132 -72.12,110.7 -72.12,110.7c-0,0 60.033,-78.725 103.991,-95.604c51.154,-19.641 164.371,1.677 164.371,1.677l-114.054,127.471c-0,0 -58.783,91.413 -77.154,95.604c-29.274,6.676 -125.559,-9.851 -161.017,-11.741c-39.652,19.076 -83.862,53.671 -83.862,53.671l110.7,-26.836l70.445,23.482c0,-0 -66.083,61.6 -87.216,100.637c-19.378,35.793 -33.545,117.408 -33.545,117.408c-0,0 36.051,-82.9 60.383,-120.762c24.073,-37.463 83.863,-103.992 83.863,-103.992c-0,0 42.225,2.257 60.383,-6.709c33.328,-16.457 77.154,-80.508 77.154,-80.508c0,-0 5.981,83.675 23.482,120.762c24.746,52.438 110.7,134.179 110.7,134.179l20.127,90.571l3.354,-124.116l77.155,3.354l-137.534,-50.317c-50.196,-47.262 -67.141,-125.004 -63.737,-221.4c-0,0 80.996,-28.917 103.991,-68.766c7.844,-13.594 16.773,-38.577 16.773,-38.577c-0,-0 180.958,-1.701 248.233,-20.127c52.179,-36.876 174.592,-153.809 174.592,-153.809l-85.187,-19.626Z" style="fill-rule:nonzero;stroke:#000;stroke-width:4.17px;"/><g transform="matrix(600,0,0,600,1569.06,1093.23)"></g><text x="447.061px" y="1093.23px" style="font-family:'CrudFont', 'Crud';font-weight:5;font-size:600px;">PEPE</text><path d="M266.021,2652.04c4.336,-7.226 83.821,-192.213 83.821,-192.213l17.342,101.163l50.584,-39.021l8.671,131.513l-160.418,-1.442Z" style="fill-rule:nonzero;stroke:#000;stroke-width:4.17px;"/><path d="M992.958,2650.58c4.336,-13.006 46.246,-171.979 46.246,-171.979l37.576,184.988l-83.822,-13.009Z" style="fill-rule:nonzero;stroke:#000;stroke-width:4.17px;"/><path d="M1303.58,2652.62l169.655,-267.417l27.646,213.942l86.792,-99.512l36.057,82.408l51.996,13.054l155.184,16.128l109.337,-110.367l13.58,166.567l-650.247,-14.803Z" style="fill-rule:nonzero;stroke:#000;stroke-width:4.17px;"/><path d="M696.708,2676.62l43.684,-277.65l77.716,260.308l-121.4,17.342Z" style="fill-rule:nonzero;stroke:#000;stroke-width:4.17px;"/></svg>